<svg xmlns="http://www.w3.org/2000/svg" width="24" height="24" viewBox="0 0 24 24" fill="none" stroke="white" stroke-width="1.7" stroke-linecap="round" stroke-linejoin="round">
  <path d="M9 11.2V5.8a2 2 0 0 1 4 0v5.4"/>
  <path d="M13 10.8V8.6a1.9 1.9 0 0 1 3.8 0v2.6"/>
  <path d="M16.8 11.2v-1.1a1.85 1.85 0 0 1 3.7 0v4.6c0 4.1-2.7 6.8-6.9 6.8h-1.1c-2.1 0-3.7-.9-4.8-2.6L5.6 15.7a1.75 1.75 0 0 1 .6-2.4 1.8 1.8 0 0 1 2.4.5l1.2 1.8"/>
  <path d="M4.5 5.8 3 4.3"/>
  <path d="M5.7 3.4V1.8"/>
  <path d="M2.8 7.2H1.2"/>
</svg>
